<svg xmlns="http://www.w3.org/2000/svg" version="1.1" xmlns:xlink="http://www.w3.org/1999/xlink" xmlns:svgjs="http://svgjs.dev/svgjs" width="405" height="155" preserveAspectRatio="none" viewBox="0 0 405 155"><g mask="url(&quot;#SvgjsMask2617&quot;)" fill="none"><rect width="405" height="155" x="0" y="0" fill="rgba(32, 207, 116, 1)"></rect><use xlink:href="#SvgjsG2620" transform="translate(0, 0)" fill="rgba(24, 55, 39, 1)"></use><use xlink:href="#SvgjsG2620" transform="translate(399, 0)" fill="rgba(24, 55, 39, 1)"></use></g><defs><mask id="SvgjsMask2617"><rect width="405" height="155" fill="#ffffff"></rect></mask><g id="SvgjsG2619"><path d="M1.32 13.81l14.02 0L15.33 3.17 1.32 3.18l0 10.63z m12.3-9.64L9.14 8.63c-0.46 0.46-1.27 0.45-1.73-0.01l-4.45-4.45 10.65 0z m-11.31 0.69l3.62 3.64-3.63 3.64 0-7.28z m0.65 7.97l3.64-3.63 0.16 0.14c0.86 0.82 2.23 0.82 3.05 0l0.15-0.15 3.67 3.64-10.67 0z m11.36-0.69L10.68 8.5 14.31 4.86 14.31 12.14z" fill-rule="evenodd"></path></g><g id="SvgjsG2618"><path d="M8 1.08C3.59 1.08 0.02 3.77 0.02 7.09c0 1.63 0.86 3.1 2.25 4.18l0 3.61 4.17-1.9c0.5 0.07 1.02 0.11 1.56 0.12 4.41 0 7.98-2.69 7.98-6.01C15.98 3.77 12.41 1.08 8 1.08z" fill-rule="evenodd"></path></g><g id="SvgjsG2620"><use xlink:href="#SvgjsG2618" transform="translate(0, 0) scale(1.9)" fill="rgba(24, 55, 39, 1)"></use><use xlink:href="#SvgjsG2618" transform="translate(0, 39.9) scale(1.9)" fill="rgba(24, 55, 39, 1)"></use><use xlink:href="#SvgjsG2618" transform="translate(0, 79.8) scale(1.9)" fill="rgba(24, 55, 39, 1)"></use><use xlink:href="#SvgjsG2619" transform="translate(0, 119.69999999999999) scale(1.9)" fill="rgba(24, 55, 39, 1)"></use><use xlink:href="#SvgjsG2619" transform="translate(39.9, 0) scale(1.9)" fill="rgba(24, 55, 39, 1)"></use><use xlink:href="#SvgjsG2619" transform="translate(39.9, 39.9) scale(1.9)" fill="rgba(24, 55, 39, 1)"></use><use xlink:href="#SvgjsG2619" transform="translate(39.9, 79.8) scale(1.9)" fill="rgba(24, 55, 39, 1)"></use><use xlink:href="#SvgjsG2619" transform="translate(39.9, 119.69999999999999) scale(1.9)" fill="rgba(24, 55, 39, 1)"></use><use xlink:href="#SvgjsG2618" transform="translate(79.8, 0) scale(1.9)" fill="rgba(24, 55, 39, 1)"></use><use xlink:href="#SvgjsG2618" transform="translate(79.8, 39.9) scale(1.9)" fill="rgba(24, 55, 39, 1)"></use><use xlink:href="#SvgjsG2619" transform="translate(79.8, 79.8) scale(1.9)" fill="rgba(24, 55, 39, 1)"></use><use xlink:href="#SvgjsG2618" transform="translate(79.8, 119.69999999999999) scale(1.9)" fill="rgba(24, 55, 39, 1)"></use><use xlink:href="#SvgjsG2619" transform="translate(119.69999999999999, 0) scale(1.9)" fill="rgba(24, 55, 39, 1)"></use><use xlink:href="#SvgjsG2619" transform="translate(119.69999999999999, 39.9) scale(1.9)" fill="rgba(24, 55, 39, 1)"></use><use xlink:href="#SvgjsG2618" transform="translate(119.69999999999999, 79.8) scale(1.9)" fill="rgba(24, 55, 39, 1)"></use><use xlink:href="#SvgjsG2618" transform="translate(119.69999999999999, 119.69999999999999) scale(1.9)" fill="rgba(24, 55, 39, 1)"></use><use xlink:href="#SvgjsG2619" transform="translate(159.6, 0) scale(1.9)" fill="rgba(24, 55, 39, 1)"></use><use xlink:href="#SvgjsG2618" transform="translate(159.6, 39.9) scale(1.9)" fill="rgba(24, 55, 39, 1)"></use><use xlink:href="#SvgjsG2619" transform="translate(159.6, 79.8) scale(1.9)" fill="rgba(24, 55, 39, 1)"></use><use xlink:href="#SvgjsG2619" transform="translate(159.6, 119.69999999999999) scale(1.9)" fill="rgba(24, 55, 39, 1)"></use><use xlink:href="#SvgjsG2618" transform="translate(199.5, 0) scale(1.9)" fill="rgba(24, 55, 39, 1)"></use><use xlink:href="#SvgjsG2619" transform="translate(199.5, 39.9) scale(1.9)" fill="rgba(24, 55, 39, 1)"></use><use xlink:href="#SvgjsG2619" transform="translate(199.5, 79.8) scale(1.9)" fill="rgba(24, 55, 39, 1)"></use><use xlink:href="#SvgjsG2619" transform="translate(199.5, 119.69999999999999) scale(1.9)" fill="rgba(24, 55, 39, 1)"></use><use xlink:href="#SvgjsG2619" transform="translate(239.39999999999998, 0) scale(1.9)" fill="rgba(24, 55, 39, 1)"></use><use xlink:href="#SvgjsG2618" transform="translate(239.39999999999998, 39.9) scale(1.9)" fill="rgba(24, 55, 39, 1)"></use><use xlink:href="#SvgjsG2618" transform="translate(239.39999999999998, 79.8) scale(1.9)" fill="rgba(24, 55, 39, 1)"></use><use xlink:href="#SvgjsG2619" transform="translate(239.39999999999998, 119.69999999999999) scale(1.9)" fill="rgba(24, 55, 39, 1)"></use><use xlink:href="#SvgjsG2619" transform="translate(279.3, 0) scale(1.9)" fill="rgba(24, 55, 39, 1)"></use><use xlink:href="#SvgjsG2619" transform="translate(279.3, 39.9) scale(1.9)" fill="rgba(24, 55, 39, 1)"></use><use xlink:href="#SvgjsG2618" transform="translate(279.3, 79.8) scale(1.9)" fill="rgba(24, 55, 39, 1)"></use><use xlink:href="#SvgjsG2618" transform="translate(279.3, 119.69999999999999) scale(1.9)" fill="rgba(24, 55, 39, 1)"></use><use xlink:href="#SvgjsG2619" transform="translate(319.2, 0) scale(1.9)" fill="rgba(24, 55, 39, 1)"></use><use xlink:href="#SvgjsG2619" transform="translate(319.2, 39.9) scale(1.9)" fill="rgba(24, 55, 39, 1)"></use><use xlink:href="#SvgjsG2618" transform="translate(319.2, 79.8) scale(1.9)" fill="rgba(24, 55, 39, 1)"></use><use xlink:href="#SvgjsG2619" transform="translate(319.2, 119.69999999999999) scale(1.9)" fill="rgba(24, 55, 39, 1)"></use><use xlink:href="#SvgjsG2619" transform="translate(359.09999999999997, 0) scale(1.9)" fill="rgba(24, 55, 39, 1)"></use><use xlink:href="#SvgjsG2618" transform="translate(359.09999999999997, 39.9) scale(1.9)" fill="rgba(24, 55, 39, 1)"></use><use xlink:href="#SvgjsG2618" transform="translate(359.09999999999997, 79.8) scale(1.9)" fill="rgba(24, 55, 39, 1)"></use><use xlink:href="#SvgjsG2618" transform="translate(359.09999999999997, 119.69999999999999) scale(1.9)" fill="rgba(24, 55, 39, 1)"></use></g></defs></svg>